HIERARCHY
ROOT Hips
{
	OFFSET 0.000000 0.000000 0.000000
	CHANNELS 6 Xposition Yposition Zposition Zrotation Yrotation Xrotation 
	JOINT LHipJoint
	{
		OFFSET 0.000000 0.000000 0.000000
		CHANNELS 3 Zrotation Yrotation Xrotation
		JOINT LeftUpLeg
		{
			OFFSET 1.363060 -1.794630 0.839290
			CHANNELS 3 Zrotation Yrotation Xrotation
			JOINT LeftLeg
			{
				OFFSET 2.448110 -6.726130 0.000000
				CHANNELS 3 Zrotation Yrotation Xrotation
				JOINT LeftFoot
				{
					OFFSET 2.562200 -7.039590 0.000000
					CHANNELS 3 Zrotation Yrotation Xrotation
					JOINT LeftToeBase
					{
						OFFSET 0.157640 -0.433110 2.322550
						CHANNELS 3 Zrotation Yrotation Xrotation
						End Site
						{
							OFFSET 0.000000 0.000000 0.000000
						}
					}
				}
			}
		}
	}
	JOINT RHipJoint
	{
		OFFSET 0.000000 0.000000 0.000000
		CHANNELS 3 Zrotation Yrotation Xrotation
		JOINT RightUpLeg
		{
			OFFSET -1.305520 -1.794630 0.839290
			CHANNELS 3 Zrotation Yrotation Xrotation
			JOINT RightLeg
			{
				OFFSET -2.542530 -6.985550 0.000000
				CHANNELS 3 Zrotation Yrotation Xrotation
				JOINT RightFoot
				{
					OFFSET -2.568260 -7.056230 0.000000
					CHANNELS 3 Zrotation Yrotation Xrotation
					JOINT RightToeBase
					{
						OFFSET -0.164730 -0.452590 2.363150
						CHANNELS 3 Zrotation Yrotation Xrotation
						End Site
						{
							OFFSET 0.000000 0.000000 0.000000
						}
					}
				}
			}
		}
	}
}
MOTION
Frames: 13
Frame Time: 0.008333
5.170388 17.172579 -0.776752 70.062331 -74.640739 -32.621523 -4.684994 0.959882 11.147060 -9.511048 -32.933310 -99.886354 -8.605946 -3.544518 -3.832364 -1.512959 -1.378642 12.350584 1.333300 -0.000000 -50.945200 10.153173 3.039843 -1.139734 2.916721 -9.088059 -50.540263 2.406135 -0.926023 22.686912 -2.062038 -5.760695 -10.984189 -0.277800 -0.000001 -53.600500
5.174191 17.171636 -0.782232 70.028856 -74.669080 -32.601959 -4.691946 0.907931 11.129309 -8.901470 -32.630416 -99.617437 -8.429860 -3.470549 -3.705066 -1.534021 -1.421629 12.830776 1.301100 -0.000000 -50.852400 10.164151 3.052337 -1.116856 2.871758 -8.947192 -50.461290 2.377844 -0.905436 22.626470 -2.098052 -5.900856 -11.034372 -0.276701 0.000000 -53.404400
5.174240 17.173161 -0.786114 69.992790 -74.742129 -32.652169 -4.701771 0.856800 11.088037 -8.501377 -32.265584 -99.021569 -8.250697 -3.413761 -3.672556 -1.539712 -1.423097 13.257296 1.280601 -0.000000 -50.734600 10.177081 3.042396 -1.066318 2.828755 -8.733696 -50.250900 2.336789 -0.866891 22.479393 -2.145449 -6.101110 -11.053286 -0.281800 0.000001 -53.212600
5.170738 17.177102 -0.788092 69.933270 -74.860472 -32.752971 -4.717792 0.808245 11.021226 -8.327090 -31.847519 -98.106214 -8.071071 -3.368970 -3.708529 -1.524881 -1.354879 13.618777 1.285400 0.000000 -50.634800 10.189814 3.008661 -0.991440 2.796497 -8.454234 -49.907658 2.285278 -0.811397 22.245635 -2.202865 -6.356164 -11.041339 -0.293100 0.000000 -53.027700
5.163839 17.183294 -0.787947 69.832066 -75.020676 -32.886973 -4.742211 0.762512 10.930068 -8.370162 -31.379739 -96.887340 -7.890905 -3.332770 -3.799178 -1.485828 -1.188922 13.925265 1.329300 -0.000000 -50.613200 10.201242 2.951499 -0.897020 2.785095 -8.126306 -49.438650 2.227465 -0.741756 21.933140 -2.266488 -6.649641 -11.001724 -0.309700 0.000000 -52.843200
5.154204 17.191773 -0.785377 69.657517 -75.224852 -33.030180 -4.779611 0.718436 10.806873 -8.636852 -30.854559 -95.381189 -7.711669 -3.293481 -3.894140 -1.426663 -0.945602 14.173317 1.404000 -0.000000 -50.656200 10.208180 2.870083 -0.790399 2.806416 -7.757610 -48.829578 2.165935 -0.658597 21.534374 -2.334558 -6.976965 -10.931194 -0.331800 -0.000000 -52.672500
5.141811 17.202201 -0.780413 69.401764 -75.467306 -33.171801 -4.831513 0.675797 10.654764 -9.094124 -30.264818 -93.617848 -7.532349 -3.247492 -3.979892 -1.349276 -0.624425 14.385969 1.510600 0.000001 -50.782600 10.210974 2.766745 -0.677605 2.869641 -7.376065 -48.094056 2.106377 -0.566258 21.065129 -2.401185 -7.312200 -10.836989 -0.357500 0.000000 -52.498200
5.127501 17.214647 -0.772769 69.027807 -75.751917 -33.281924 -4.902717 0.631254 10.464772 -9.719387 -29.589626 -91.625745 -7.351366 -3.183604 -4.005004 -1.260960 -0.266429 14.561543 1.630400 0.000000 -50.936800 10.206080 2.641011 -0.566398 2.985682 -6.983870 -47.211917 2.050303 -0.464475 20.510763 -2.465637 -7.657227 -10.710789 -0.388100 0.000001 -52.346900
5.111471 17.228767 -0.762662 68.530822 -76.071923 -33.353059 -4.993587 0.584935 10.240985 -10.456198 -28.818873 -89.447151 -7.166069 -3.099702 -3.955476 -1.164808 0.117877 14.715866 1.759000 0.000000 -51.091000 10.194703 2.496472 -0.461280 3.158591 -6.605827 -46.200198 2.002132 -0.357317 19.887302 -2.522780 -7.989271 -10.559035 -0.421800 0.000000 -52.201400
5.094077 17.244337 -0.750219 67.897404 -76.425674 -33.368088 -5.105540 0.536054 9.983249 -11.245534 -27.941300 -87.124408 -6.972309 -2.992247 -3.804486 -1.064068 0.509943 14.847296 1.887700 0.000000 -51.190000 10.176405 2.335175 -0.366026 3.390576 -6.249410 -45.060334 1.963260 -0.246025 19.194576 -2.571092 -8.303574 -10.379981 -0.458700 0.000000 -52.064900
5.075533 17.261122 -0.735669 67.120574 -76.809802 -33.312286 -5.238547 0.484319 9.695168 -12.011528 -26.955556 -84.703020 -6.763447 -2.861335 -3.537116 -0.958288 0.911198 14.952187 2.016799 0.000000 -51.189900 10.151581 2.159834 -0.282046 3.679006 -5.918958 -43.800256 1.933937 -0.131664 18.432954 -2.609929 -8.598919 -10.169774 -0.499700 -0.000001 -51.948900
5.055980 17.278766 -0.719415 66.206176 -77.218513 -33.180862 -5.390587 0.431072 9.383583 -12.678849 -25.875227 -82.226594 -6.532733 -2.709299 -3.143621 -0.844264 1.337603 15.019946 2.152799 0.000000 -51.054500 10.121845 1.974464 -0.208992 4.015361 -5.618817 -42.436475 1.913817 -0.015828 17.610551 -2.638941 -8.872738 -9.930635 -0.544600 0.000001 -51.843401
5.035373 17.296950 -0.701870 65.167077 -77.645909 -32.971440 -5.558638 0.377597 9.057715 -13.172377 -24.728648 -79.733392 -6.272193 -2.540259 -2.619558 -0.715878 1.820857 15.035711 2.308499 -0.000000 -50.764999 10.088918 1.782835 -0.144621 4.387525 -5.345729 -40.985959 1.900938 0.100789 16.731053 -2.659324 -9.130063 -9.659547 -0.594701 0.000000 -51.757601
